<?xml version="1.0" encoding="UTF-8"?>
<!DOCTYPE svg PUBLIC "-//W3C//DTD SVG 1.1//EN" "http://www.w3.org/Graphics/SVG/1.1/DTD/svg11.dtd">
<svg xmlns="http://www.w3.org/2000/svg" version="1.1" width="3840px" height="2160px" style="shape-rendering:geometricPrecision; text-rendering:geometricPrecision; image-rendering:optimizeQuality; fill-rule:evenodd; clip-rule:evenodd" xmlns:xlink="http://www.w3.org/1999/xlink">
<g><path style="opacity:0.993" fill="#000000" d="M 3607.5,801.5 C 3652.21,797.671 3695.54,803.505 3737.5,819C 3782.08,837.623 3805.91,871.123 3809,919.5C 3810.77,938.823 3810.94,958.156 3809.5,977.5C 3763.83,977.5 3718.17,977.5 3672.5,977.5C 3672.67,960.83 3672.5,944.163 3672,927.5C 3668.06,909.902 3657.06,900.568 3639,899.5C 3625.95,900.197 3614.95,905.197 3606,914.5C 3605,916.5 3604,918.5 3603,920.5C 3601.34,1020.12 3601.01,1119.79 3602,1219.5C 3608.21,1243.03 3623.38,1252.87 3647.5,1249C 3663.2,1244.3 3672.03,1233.8 3674,1217.5C 3674.5,1187.84 3674.67,1158.17 3674.5,1128.5C 3662.17,1128.5 3649.83,1128.5 3637.5,1128.5C 3637.5,1102.83 3637.5,1077.17 3637.5,1051.5C 3695.83,1051.5 3754.17,1051.5 3812.5,1051.5C 3812.67,1109.5 3812.5,1167.5 3812,1225.5C 3812,1248.84 3806.67,1270.84 3796,1291.5C 3783.43,1309.74 3766.93,1323.24 3746.5,1332C 3678.56,1358.32 3610.23,1359.32 3541.5,1335C 3508.72,1322.89 3484.89,1301.06 3470,1269.5C 3466.08,1259.15 3463.41,1248.48 3462,1237.5C 3461.8,1137.83 3461.3,1038.16 3460.5,938.5C 3462.78,873.086 3495.12,830.586 3557.5,811C 3574.05,806.455 3590.72,803.288 3607.5,801.5 Z"/></g>
<g><path style="opacity:0.993" fill="#000000" d="M 191.5,804.5 C 222.798,803.477 253.798,805.977 284.5,812C 315.488,818.071 341.655,832.571 363,855.5C 373.717,868.632 380.384,883.632 383,900.5C 383.47,927.169 383.97,953.836 384.5,980.5C 339.205,980.207 294.039,980.54 249,981.5C 247.681,964.651 247.014,947.651 247,930.5C 245.35,922.035 240.85,915.535 233.5,911C 216.575,900.859 199.909,901.192 183.5,912C 168.584,928.079 166.084,945.912 176,965.5C 180.038,972.544 185.204,978.711 191.5,984C 204.309,992.795 217.643,1000.8 231.5,1008C 254.833,1019.33 278.167,1030.67 301.5,1042C 317.004,1050.58 332.004,1059.92 346.5,1070C 374.976,1095.79 390.476,1127.95 393,1166.5C 393.667,1188.83 393.667,1211.17 393,1233.5C 388.553,1276.59 367.386,1308.42 329.5,1329C 290.158,1348.57 248.492,1357.74 204.5,1356.5C 164.194,1358.07 125.861,1350.24 89.5,1333C 54.2851,1314.09 33.1184,1284.92 26,1245.5C 25.5,1220.5 25.3334,1195.5 25.5,1170.5C 73.8333,1170.5 122.167,1170.5 170.5,1170.5C 170.065,1189.55 170.565,1208.55 172,1227.5C 178.491,1244.3 190.824,1252.97 209,1253.5C 230.992,1252.51 243.992,1241.18 248,1219.5C 250.364,1202.26 245.697,1187.26 234,1174.5C 229.801,1169.97 225.301,1165.8 220.5,1162C 181.691,1140.76 142.691,1119.76 103.5,1099C 84.1273,1086.63 67.6273,1071.13 54,1052.5C 45.6742,1037.86 40.3409,1022.19 38,1005.5C 36.403,977.195 36.0696,948.861 37,920.5C 37.6657,881.644 54.8324,852.811 88.5,834C 121.022,817.456 155.356,807.623 191.5,804.5 Z"/></g>
<g><path style="opacity:0.993" fill="#000000" d="M 1963.5,804.5 C 1999.03,802.907 2034.03,806.407 2068.5,815C 2100.7,823.161 2125.87,840.995 2144,868.5C 2151.41,882.07 2155.58,896.57 2156.5,912C 2155.62,928.137 2155.62,944.304 2156.5,960.5C 2156.65,967.662 2156.15,974.662 2155,981.5C 2109.96,980.54 2064.79,980.207 2019.5,980.5C 2019.67,963.497 2019.5,946.497 2019,929.5C 2014.5,915.677 2005,907.51 1990.5,905C 1956.6,901.904 1940.76,917.404 1943,951.5C 1946.74,965.822 1954.57,977.322 1966.5,986C 1996.35,1004.93 2027.69,1021.26 2060.5,1035C 2078.66,1044.58 2096.33,1054.91 2113.5,1066C 2145.3,1091.42 2162.46,1124.59 2165,1165.5C 2165.67,1188.5 2165.67,1211.5 2165,1234.5C 2161.56,1272.89 2143.72,1302.39 2111.5,1323C 2081.26,1340.86 2048.6,1351.52 2013.5,1355C 1978.24,1358.28 1943.24,1356.61 1908.5,1350C 1881.36,1343.93 1857.03,1332.26 1835.5,1315C 1814.48,1296.12 1801.98,1272.62 1798,1244.5C 1797.5,1219.84 1797.33,1195.17 1797.5,1170.5C 1845.83,1170.5 1894.17,1170.5 1942.5,1170.5C 1942.33,1187.5 1942.5,1204.5 1943,1221.5C 1947.2,1242.37 1960.04,1253.04 1981.5,1253.5C 2002.77,1252.4 2015.6,1241.4 2020,1220.5C 2022.54,1203.46 2018.21,1188.46 2007,1175.5C 2001.43,1169.26 1995.26,1163.76 1988.5,1159C 1948.39,1138.44 1908.72,1117.11 1869.5,1095C 1855.11,1084.95 1842.28,1073.12 1831,1059.5C 1819.49,1043.32 1812.49,1025.32 1810,1005.5C 1808.4,977.195 1808.07,948.861 1809,920.5C 1811.35,873.934 1833.85,841.434 1876.5,823C 1904.69,812.397 1933.69,806.231 1963.5,804.5 Z"/></g>
<g><path style="opacity:0.993" fill="#000000" d="M 1408.5,819.5 C 1483.05,819.797 1557.55,819.797 1632,819.5C 1637.79,992.748 1642.96,1166.08 1647.5,1339.5C 1602.17,1339.5 1556.83,1339.5 1511.5,1339.5C 1510.84,1209.83 1509.84,1080.16 1508.5,950.5C 1505.55,950.223 1502.72,950.556 1500,951.5C 1476.77,1080.52 1453.44,1209.52 1430,1338.5C 1406.4,1339.16 1382.74,1339.5 1359,1339.5C 1335.12,1339.49 1311.45,1338.83 1288,1337.5C 1264.18,1208.55 1240.68,1079.55 1217.5,950.5C 1214.17,950.5 1210.83,950.5 1207.5,950.5C 1207.03,1080.17 1206.36,1209.84 1205.5,1339.5C 1160.83,1339.67 1116.17,1339.5 1071.5,1339C 1074.66,1166.97 1078.33,994.804 1082.5,822.5C 1158.17,822.5 1233.83,822.5 1309.5,822.5C 1324.02,916.471 1338.35,1010.47 1352.5,1104.5C 1356.35,1105.03 1359.85,1104.36 1363,1102.5C 1377.96,1008.09 1393.12,913.752 1408.5,819.5 Z"/></g>
<g><path style="opacity:0.994" fill="#000000" d="M 2324.5,820.5 C 2373.83,820.5 2423.17,820.5 2472.5,820.5C 2472.33,951.5 2472.5,1082.5 2473,1213.5C 2474.62,1238.45 2487.95,1251.12 2513,1251.5C 2533.82,1251.35 2546.15,1241.02 2550,1220.5C 2550.5,1087.17 2550.67,953.834 2550.5,820.5C 2598.83,820.5 2647.17,820.5 2695.5,820.5C 2695.67,956.5 2695.5,1092.5 2695,1228.5C 2690.67,1272.13 2669.5,1304.63 2631.5,1326C 2583.91,1349.92 2533.57,1358.92 2480.5,1353C 2441.78,1350.54 2406.45,1338.54 2374.5,1317C 2345.94,1294.39 2329.44,1264.89 2325,1228.5C 2324.5,1092.5 2324.33,956.5 2324.5,820.5 Z"/></g>
<g><path style="opacity:0.993" fill="#000000" d="M 2878.5,820.5 C 2933.84,820.167 2989.17,820.5 3044.5,821.5C 3090.27,925.383 3135.77,1029.38 3181,1133.5C 3182.75,1135.25 3184.92,1135.92 3187.5,1135.5C 3183.98,1030.51 3180.65,925.511 3177.5,820.5C 3223.17,820.5 3268.83,820.5 3314.5,820.5C 3314.5,993.5 3314.5,1166.5 3314.5,1339.5C 3260.83,1339.83 3207.16,1339.5 3153.5,1338.5C 3106.14,1233.25 3058.31,1128.25 3010,1023.5C 3008.7,1023.97 3007.2,1023.97 3005.5,1023.5C 3008.35,1128.83 3011.02,1234.16 3013.5,1339.5C 2968.5,1339.5 2923.5,1339.5 2878.5,1339.5C 2878.5,1166.5 2878.5,993.5 2878.5,820.5 Z"/></g>
<g><path style="opacity:0.994" fill="#000000" d="M 610.5,822.5 C 686.738,822.168 762.904,822.502 839,823.5C 868.718,995.144 898.218,1166.81 927.5,1338.5C 879.167,1338.5 830.833,1338.5 782.5,1338.5C 765.002,1205.19 747.669,1071.85 730.5,938.5C 726.5,938.5 722.5,938.5 718.5,938.5C 701.261,1071.84 683.927,1205.18 666.5,1338.5C 618.167,1338.5 569.833,1338.5 521.5,1338.5C 550.739,1166.4 580.406,994.395 610.5,822.5 Z"/></g>
</svg>
